# xmcd
#
# Track frame offsets:
#	150
#	21660
#	33121
#	47705
#	69531
#	81989
#	94180
#	117930
#	125758
#	149055
#	161073
#	179022
#	200517
#	214739
#
# Disc length: 3070 seconds
# Revision: 0
# Processed by: cddbd v1.5.2PL0 Copyright (c) Steve Scherf et al.
# Submitted via: dBpowerAMP V12.0
#
DISCID=da0bfc0e
DTITLE=Hale Dwoskin - Absolute Freedom CD 04 - Beyond Self and Other
DYEAR=2005
DGENRE=Speech
TTITLE0=Introduction
TTITLE1=Welcoming What Is - Self and Other
TTITLE2=The Body and the Mind Being Self - Being Other
TTITLE3=What Is Seen - Heard - Felt
TTITLE4=Light - Darkness
TTITLE5=Sound - Silence
TTITLE6=Sensation - Emptiness - Illusion - Take a Break
TTITLE7=Welcome Back
TTITLE8=Reality - Everything - Nothing
TTITLE9=Awareness - Consciousness
TTITLE10=Bliss - Happiness - Freedom
TTITLE11=Limitation - Void - Existence
TTITLE12=That - This - I
TTITLE13=Beginning and End
EXTD=
EXTT0=
EXTT1=
EXTT2=
EXTT3=
EXTT4=
EXTT5=
EXTT6=
EXTT7=
EXTT8=
EXTT9=
EXTT10=
EXTT11=
EXTT12=
EXTT13=
PLAYORDER=
